/* XPM */
static char *result[] = {
/* columns rows colors chars-per-pixel */
"45 45 9 1 ",
"  c #754C60",
". c #90625D",
"X c #A4C263",
"o c #B3C373",
"O c #C0D470",
"+ c #D99A9A",
"@ c #DCB98A",
"# c #E8B5AC",
"$ c #F3E5C2",
/* pixels */
"OOOOOOOOOOOOOOOOOOXOOOOOOOOOOOOOOOOOOOOOOOOOO",
"OOOOOOOOOOOOOOOOOOOOOOOOOOOOOOOOOOOOOOOOOOOOO",
"OOOOOOOOOOOOOOOOOOOOOOOOOOOOOOOOOOOOOOOOOOOOO",
"OOOOOOOOOOOOOOOOOOOOOOOOOXOOOOOOOOOOOXOOOOOOO",
"OOOOOOOOOOOOXOOOOOOOOOOOOOOOOOOOOOOOOOOOOOOOO",
"OOXOOOOOOOOOOOOOOOOOOOOOOOOOOOOOOOOOOOOOOOOOO",
"OOOOOOOOOOOOOOOOOOOOOOOOOOOOOOOOOOOOOOOOOOOOO",
"OOOOOOOOOOOOOOOOOOOOOOOOOOOOOOOOOOOOOOOOOOOOO",
"OOOOOOOOOOOOOOOOOOOOOOOOOOOOOOOOOOOOOOOOOOOOO",
"OOOOOOOOOOXO..OOOO...OOOOOOOOOOXOOOOOOOOOOOOO",
"OOOOOOOOOOO.$.OOOO.$$.OOOOOOOOOOOOOOOOOOOOOOO",
"OOOOOOOOOOO.$.OOOO.$$.OOOOOOOOOOOOOOOOOOOOOOO",
"OOOO...OOO..$......$$.OO...OOOOOOOOOOOOOOOOOO",
"OOO.$$$...$$$@@@@@@@@...$$$.OOOOOOOOOOOOOXOOO",
"OOO.$$$.$$$$$@@@@@@@@.$$$$$.OOOOOOOOOOOOOOOOO",
"OOO.$$$.$$$$$@@@@@@@@$$$$$$.......OOOOOOOOOOO",
"OOO.###.$$$$$$$@@@@@@@$$###.$$@@@@.OOOOOOOOOO",
"OOO.###.$$$$$$$@@@@@@@$$###.$$@@@@...OOOOOOOO",
"OOOO...$$   $$$$   @@@.....$$$@@@@@@@.OOOOOOO",
"OOOOOO.$$$$$$$$$$$$$$$$$$$$$$$$@@@@@@.OOOOOOO",
"OOOOOO.$$$$$$$$$$$$$$$$$$$$$$$$@@@@@@..OOOOOO",
"OXOOOO.#########$$$$$$$$$$$$$$$$$$@@@.@.OOOOO",
"OOOOOO.##+###++###$$$$$$$@@@$$$$$$$$$.@@..OOO",
"OOOOOO.##+###++###$$$.$$$@@@$$$$$$$$$.@@@.OOO",
"OOOOOO.###########$..$$$@@@@@@$$$$$$$...@@.OO",
"OOOOOOO............$$$$$$@@@$$$$$$$$$.OO...OO",
"OOOOOOOOOOOOOOO.@@@$$$$$$@@@$$$$$$$$$.OOOOOOO",
"OOOOOOOOOOOOOOO.@@@@@$$$$$$$$$$@@@@@@.OOOOOOO",
"OOOOOOOXOOOOOXO.@@@@@@@@@@@@@@@@@@@@@.OOOOOOO",
"OOOOOOOOOOOOOOO.@@@@@@@@@@@@@@@@@@@@@.OOOOOXO",
"OOOOOOOOOOOOooo.@@@.....@@@......@@@.oooOOOOO",
"XOOOOOOOOOooooo.@@@.Ooo.@@@.oooo.@@@.oooooOOO",
"OOOOOOOOOOooooo.@@@.Ooo.@@@.oooo.@@@.oooooOOO",
"OOOOOOOOOOoooooo...ooooo...oooooo...ooooooOOO",
"OOOOOOOOOOOOooooooooooooooooooooooooooooOOOOO",
"OOOOOOOOOOOOOOOOOOOOOOOOOOOOOOOOOOOOOOOOOOOOO",
"OXOOOOOOOXOOOOOOOOOOOXOOOOXOOOOOOOOOOOOOOOOOO",
"OOOOOOOOOOOOOOOOOOOOOOOOOOOOOOOOOOOOOOOOOOOOO",
"OOOOOOOOOOOOOOOOOOOOOOOOOOOOOOOOOOOOOOOOXOOOO",
"OOOOOOOOOOOOOOOOOOOOOOOOOOOOOOOOOOOOOOOOOOOOO",
"OOOOOOOOOOOOOOOOOOOOOOOOOOOOOOOOOOOOOOOOOOOOO",
"OOOOOOXOOOOOOOOOOOOOOOXXOOOOOOOOOOOOOOOOOOOOO",
"OOOOOOOOOOOOOOOOOOOOOOOOOOOOOOOOOXOOOOOOOOOOO",
"OOOOOOOOOOOOOOOOOOOOOOOOOOOOOOOOOOOOOOOOOOOOO",
"OOOOOOOOOOOOOXOOOOOOOOOOOOOOOOOOOOOOOOOOOOOXO"
};
