/* XPM */
static char *result[] = {
/* columns rows colors chars-per-pixel */
"45 45 9 1 ",
"  c #754C60",
". c #90625D",
"X c #A4C263",
"o c #B3C373",
"O c #C0D470",
"+ c #D99A9A",
"@ c #DCB98A",
"# c #E8B5AC",
"$ c #F3E5C2",
/* pixels */
"OOOOOOOOOOOOOOOOOOXOOOOOOOOOOOOOOOOOOOOOOOOOO",
"OOOOOOOOOOOOOOOOOOOOOOOOOOOOOOOOOOOOOOOOOOOOO",
"OOOOOOOOOOOOOOOOOOOOOOOOOOOOOOOOOOOOOOOOOOOOO",
"OOOOOOOOOOOOOOOOOOOOOOOOOXOOOOOOOOOOOXOOOOOOO",
"OOOOOOOOOOOOXOOOOOOOOOOOOOOOOOOOOOOOOOOOOOOOO",
"OOXOOOOOOOOOOOOOOOOOOOOOOOOOOOOOOOOOOOOOOOOOO",
"OOOOOOOOOOOOOOOOOOOOOOOOOOOOOOOOOOOOOOOOOOOOO",
"OOOOOOOOOOOOOOOOOOOOOOOOOOOOOOOOOOOOOOOOOOOOO",
"OOOOOOOOOOOOOOOOOOOOOOOOOOOOOOOOOOOOOOOOOOOOO",
"OOOOOOOOOOXOOOOOOOOOOOOO...OOOO..OOOOOOOOOOOO",
"OOOOOOOOOOOOOOOOOOOOOOO.$$.OOOO.$.OOOOOOOOOOO",
"OOOOOOOOOOOOOOOOOOOOOOO.$$.OOOO.$.OOOOOOOOOOO",
"OOOOOOOOOOOOOOOOOO...OO.$$......$..OOO...OOOO",
"OOOOOOOOOOOOOOOOO.$$$...@@@@@@@@$$$...$$$.OOO",
"OOOOOOOOOOOOOOOOO.$$$$$.@@@@@@@@$$$$$.$$$.OOO",
"OOOOOOOOOOO.......$$$$$$@@@@@@@@$$$$$.$$$.OOO",
"OOOOOOOOOO.@@@@$$.###$$@@@@@@@$$$$$$$.###.OOO",
"OOXOOOOO...@@@@$$.###$$@@@@@@@$$$$$$$.###.OOO",
"OOOOOOO.@@@@@@@$$$.....@@@   $$$$   $$...OOOO",
"OOOOOOO.@@@@@@$$$$$$$$$$$$$$$$$$$$$$$$.OOOOOO",
"OOOOOO..@@@@@@$$$$$$$$$$$$$$$$$$$$$$$$.OOOOOO",
"OXOOO.@.@@@$$$$$$$$$$$$$$$$$$#########.OOOOOO",
"OOO..@@.$$$$$$$$$@@@$$$$$$$###++###+##.OOXOOO",
"OOO.@@@.$$$$$$$$$@@@$$$.$$$###++###+##.OOOOOO",
"OO.@@...$$$$$$$@@@@@@$$$..$###########.OOOOOO",
"OO...OO.$$$$$$$$$@@@$$$$$$............OOOOOOO",
"OOOOOOO.$$$$$$$$$@@@$$$$$$@@@.OOOOOOOOOOOOOOO",
"OOOOOOO.@@@@@@$$$$$$$$$$@@@@@.OOOOOOOOOOOOOOO",
"OOOOOOO.@@@@@@@@@@@@@@@@@@@@@.OOOOOOOOOOOOOOO",
"OOOOOOO.@@@@@@@@@@@@@@@@@@@@@.OOOOOOOOOOOOOXO",
"OOOOOooo.@@@......@@@.....@@@.oooOOOOOOOOOOOO",
"XOOooooo.@@@.oooo.@@@.ooO.@@@.oooooOOOOOOOOOO",
"OOOooooo.@@@.oooo.@@@.ooO.@@@.oooooOOOOOOOOOO",
"OOOoooooo...oooooo...ooooo...ooooooOOOOOOOOOO",
"OOOOOooooooooooooooooooooooooooooOOOOOOOOOOOO",
"OOOOOOOOOOOOOOOOOOOOOOOOOOOOOOOOOOOOOOOOOOOOO",
"OXOOOOOOOXOOOOOOOOOOOXOOOOXOOOOOOOOOOOOOOOOOO",
"OOOOOOOOOOOOOOOOOOOOOOOOOOOOOOOOOOOOOOOOOOOOO",
"OOOOOOOOOOOOOOOOOOOOOOOOOOOOOOOOOOOOOOOOXOOOO",
"OOOOOOOOOOOOOOOOOOOOOOOOOOOOOOOOOOOOOOOOOOOOO",
"OOOOOOOOOOOOOOOOOOOOOOOOOOOOOOOOOOOOOOOOOOOOO",
"OOOOOOXOOOOOOOOOOOOOOOXXOOOOOOOOOOOOOOOOOOOOO",
"OOOOOOOOOOOOOOOOOOOOOOOOOOOOOOOOOXOOOOOOOOOOO",
"OOOOOOOOOOOOOOOOOOOOOOOOOOOOOOOOOOOOOOOOOOOOO",
"OOOOOOOOOOOOOXOOOOOOOOOOOOOOOOOOOOOOOOOOOOOXO"
};
