/* XPM */
static char *result[] = {
/* columns rows colors chars-per-pixel */
"45 45 10 1 ",
"  c #A4C263",
". c #C0D470",
"X c #4C468B",
"o c #555793",
"O c #5F699C",
"+ c #7180B1",
"@ c #8599C7",
"# c #B6CAD4",
"$ c #CBE0DE",
"% c #F3F4E7",
/* pixels */
".................. ..........................",
".............................................",
".............................................",
"......................... ........... .......",
"............ ................................",
".. ..........................................",
".............................................",
".............................................",
"................oooooooooooXX................",
".......... .....oooooooooooXX.. .............",
"..............oo@@@@@@@@@++++XX..............",
"..............oo@@@@@@@@@++++XX..............",
"................XXXXXXXXXXXXX................",
"................XXXXXXXXXXXXX............ ...",
"..............@@$$%%$$$$$$$##@@..............",
"..............@@$$%%$$$$$$$##@@..............",
"..............@@$$%%$$$$$$$##@@..............",
".. ...........@@%%$$$$$$$$$##@@.... .........",
"..............@@%%$$$$$$$$$##@@..............",
"..............@@$$$$$$$$$$$##@@..............",
"..............@@$$$$$$$$$$$##@@..............",
". ..........@@$$$$$$$$$$$$$####++............",
"............@@$$$$$$$$$$$$$####++........ ...",
"............@@$$$$$$$$$$$$$####++............",
"............@@$$$$$$$$$$$$$####++............",
"............@@$$$$$$$$$$$$$####++............",
"............++$$$$$$$$$$$$$####OO............",
"............++$$$$$$$$$$$$$####OO............",
"....... ....++$$$$$$$$$$$$$####OO............",
"............++$$$$$$$$$$$$$####OO.......... .",
"............++$$$$$$$$$$$######OO............",
" ...........++$$$$$$$$$$$######OO............",
"............OO$$$$#############OO............",
"............OO$$$$#############OO............",
"............OO$$$$#############OO............",
".............OOOOOOOOOOOOOOOOOO..............",
". ....... ...OOOOOOOOOOOOOOOOOO..............",
".............................................",
"........................................ ....",
".............................................",
".............................................",
"...... ...............  .....................",
"................................. ...........",
".............................................",
"............. ............................. ."
};
