/* XPM */
static char *result[] = {
/* columns rows colors chars-per-pixel */
"45 45 11 1 ",
"  c #A4C263",
". c #C0D470",
"X c #4C468B",
"o c #555793",
"O c #5F699C",
"+ c #7180B1",
"@ c #8599C7",
"# c #B6CAD4",
"$ c #CBE0DE",
"% c #DCE0D2",
"& c #F3F4E7",
/* pixels */
".................. ..........................",
".............................................",
".............................................",
"......................... ........... .......",
"............ ................................",
".. ..........................................",
".............................................",
".............................................",
".............................................",
".......... .................... .............",
".............................................",
".............................................",
".............................................",
"..................oooooooXX.............. ...",
".................o@@@@@@+++X.................",
".................o@@@@@@+++X.................",
"..................XXXXXXXXX..................",
".. ..............@$&&$$$$##@....... .........",
".................@&&$$$$$##@.................",
".................@&$$$$$$##@.................",
".................@$$$$$$$##@.................",
". ....... .......@$$$$$$$##@.................",
"................@&&&&&&&&%%%+............ ...",
"................@&&&&&&&&%%%+................",
"................@&&&&&&&&%%%+................",
"................+&&&&&&&&%%%O................",
"................+&&&&&&&&%%%O................",
"................+&&&&&&&&%%%O.... ...........",
"....... ........+&&&&&&&%%%%O................",
"................O&&%%%%%%%%%O.............. .",
"................O&&%%%%%%%%%O................",
" ................OOOOOOOOOOO.................",
".............................................",
".............................................",
".............................................",
".............................................",
". ....... ........... .... ..................",
".............................................",
"........................................ ....",
".............................................",
".............................................",
"...... ...............  .....................",
"................................. ...........",
".............................................",
"............. ............................. ."
};
