/* XPM */
static char *result[] = {
/* columns rows colors chars-per-pixel */
"45 45 9 1 ",
"  c #713970",
". c #8A4A70",
"X c #AF6776",
"o c #BD757E",
"O c #A4C263",
"+ c #B3C373",
"@ c #C0D470",
"# c #E8B5AC",
"$ c #F3D8C5",
/* pixels */
"@@@@@@@@@@@@@@@@@@O@@@@@@@@@@@@@@@@@@@@@@@@@@",
"@@@@@@@@@@@@@@@@@@@@@@@@@@@@@@@@@@@@@@@@@@@@@",
"@@@@@@@@@@@@@@@@@@@@@@@@@@@@@@@@@@@@@@@@@@@@@",
"@@@@@@@@@@@@@@@@@@@@@@@@@O@@@@@@@@@@@O@@@@@@@",
"@@@@@@@@@@@@O@@@@@@@@@@@@@@@@@@@@@@@@@@@@@@@@",
"@@O@@@@@@@@@@@@@@@@@@@@@@@@@@@@@@@@@@@@@@@@@@",
"@@@@@@@@@@@@@@@@@@@@@@@@@@@@@@@@@@@@@@@@@@@@@",
"@@@@@@@@@@@@@@@@@@@@@@@@@@@@@@@@@@@@@@@@@@@@@",
"@@@@@@@@@@@@@@@@@@@@@@@@@@@@@@@@@@@@@@@@@@@@@",
"@@@@@@@@@@O@@@@@@@@@@@@@@@@@@@@O@@@@@@@@@@@@@",
"@@@@@@@@@@@@@@@@@@@@@@........@@@@@@@@@@@@@@@",
"@@@@@@@@@@@@@@@@@@@@@@........@@@@@@@@@@@@@@@",
"@@@@@@@@@@@@@@@@@@O@..oooo$$$$..@@@@@@@@@@@@@",
"@@@@@@@@@@@@@@@@@@@@..oooo$$$$..@@@@@@@@@O@@@",
"@@@@@@@@@@@@@@@@@@..oooo$$$$$$oo..@@@@@@@@@@@",
"@@@@@@@@@@@@@@@@@@..oooo$$$$$$oo..@@@@@@@@@@@",
"@@@@@@@@@@@@@@@@@@..XXoooooooooo..@@@@@@@@@@@",
"@@O@@@@@@@@@@@@@@@..XXoooooooooo..@O@@@@@@@@@",
"@@@@@@@@@@@@@@@@..XXXXXXooooooXX##..@@@@@@@@@",
"@@@@@@@@@@@@@@@@..XXXXXXooooooXX##..@@@@@@@@@",
"@@@@@@@@@@@@@@......####XXXXXX####..@@@@@@@@@",
"@O@@@@@@@O@@@@......####XXXXXX####..@@@@@@@@@",
"@@@@@@@@@@@@..oooooo..####XXXX....@@@@@@@O@@@",
"@@@@@@@@@@@@..oooooo..####XXXX....@@@@@@@@@@@",
"@@@@@@@@@@..XXooooooXX........@@@@@@@@@@@@@@@",
"@@@@@@@@@@..XXooooooXX........@@@@@@@@@@@@@@@",
"@@@@@@@@@@..XXXXXXXXXX..####  ++@@@@@@@@@@@@@",
"@@@@@@@@@@..XXXXXXXXXX..####  ++@O@@@@@@@@@@@",
"@@@@@@@O@@@@..........  $$$$  ++++@@@@@@@@@@@",
"@@@@@@@@@@@@..........  $$$$  ++++@@@@@@@@@O@",
"@@@@@@@@@@@@++  ##  ++++++++++++@@@@@@@@@@@@@",
"O@@@@@@@@@@@++  ##  ++++++++++++@@@@@@@@@@@@@",
"@@@@@@@@@@++++  $$  ++@@@@@@@@@@@@@@@@@@@@@@@",
"@@@@@@@@@@++++  $$  ++@@@@@@@@@@@@@@@@@@@@@@@",
"@@@@@@@@@@@@++++++++@@@@@@@@@@@@@@@@@@@@@@@@@",
"@@@@@@@@@@@@++++++++@@@@@@@@@@@@@@@@@@@@@@@@@",
"@O@@@@@@@O@@@@@@@@@@@O@@@@O@@@@@@@@@@@@@@@@@@",
"@@@@@@@@@@@@@@@@@@@@@@@@@@@@@@@@@@@@@@@@@@@@@",
"@@@@@@@@@@@@@@@@@@@@@@@@@@@@@@@@@@@@@@@@O@@@@",
"@@@@@@@@@@@@@@@@@@@@@@@@@@@@@@@@@@@@@@@@@@@@@",
"@@@@@@@@@@@@@@@@@@@@@@@@@@@@@@@@@@@@@@@@@@@@@",
"@@@@@@O@@@@@@@@@@@@@@@OO@@@@@@@@@@@@@@@@@@@@@",
"@@@@@@@@@@@@@@@@@@@@@@@@@@@@@@@@@O@@@@@@@@@@@",
"@@@@@@@@@@@@@@@@@@@@@@@@@@@@@@@@@@@@@@@@@@@@@",
"@@@@@@@@@@@@@O@@@@@@@@@@@@@@@@@@@@@@@@@@@@@O@"
};
