/* XPM */
static char *result[] = {
/* columns rows colors chars-per-pixel */
"45 45 9 1 ",
"  c #A4C263",
". c #C0D470",
"X c #EAE178",
"o c #5C4E92",
"O c #766DAA",
"+ c #E8B5AC",
"@ c #DDD5DE",
"# c #F3D8C5",
"$ c #F3F2C0",
/* pixels */
".............................................",
".............................................",
"....................................... .....",
"..........ooooooo.. ........ooooooo..........",
".... .....ooooooo...........ooooooo..........",
"..........ooooooo...........ooooooo..........",
".......ooo$$$$$$$ooo.....ooo$$$$$$$ooo.......",
".......ooo+++++$$ooooooooooo$$+++++ooo.......",
".......ooo+++++$$ooooooooooo$$+++++ooo.......",
".......ooo+++++$$ooooooooooo$$+++++ooo.......",
".......ooo+++++$$@@@@@@@@@@@$$+++++ooo ......",
".......ooo+++++$$@@@@@@@@@@@$$+++++ooo.......",
".......ooo+++++$$@@@@@@@@@@@$$+++++ooo.......",
"...... ooo$$$$$$$@@@@@@@@@@@$$$$$$$ooo.......",
".......ooo$$$$$$$@@@@@@@@@@@$$$$$$$ooo.......",
".......ooo$$$$$$$@@@@@@@@@@@$$$$$$$ooo.......",
".......ooo$$$$$$$@@@@@@@@@@@$$$$$$$ooo.......",
".......ooo$$$$$$$$$$$$$$$$$$$$$$$$$ooo.......",
"....oooooo$$$$$$$$$$$$$$$$$$$$$$$$$oooooo....",
"....oooooo$$$$$$$$$$$$$$$$$$$$$$$$$oooooo... ",
".......ooo$$$oo$$$$$$$$$$$$$$$oo$$$ooo.......",
"...... ooo$$$oo$$$$$$$$$$$$$$$oo$$$ooo.......",
".......ooo$$$$$$$$$$$$$$$$$$$$$$$$$ooo.......",
"....oooooo$$$$$$$$$$$$$$$$$$$$$$$$$oooooo....",
"....oooooo$$$$$$$$$$$$$$$$$$$$$$$$$oooooo....",
".......ooo#####$$$$$$$$$$$$$$$#####ooo.......",
".......ooo#####$$$$$$$$$$$$$$$#####ooo.......",
".......ooo#####$$$$$$$$$$$$$$$#####ooo.......",
"..........oooooOOOOOOOOOOOOOOOooooo..........",
"..........oooooOOOOOOOOOOOOOOOooooo..........",
"...... ooo@@@$$OOOOOXX$$$OOOOO$$@@@ooo.......",
".......ooo@@@$$OOOOOXX$$$OOOOO$$@@@ooo..... .",
".......ooo@@@$$$$$$$XXXXX$$$$$$$@@@ooo.......",
".......ooo@@@$$$$$$$XXXXX$$$$$$$@@@ooo.......",
".......ooo@@@$$$$$$$XXXXX$$$$$$$@@@ooo.......",
"..........ooooo$$$$$$$$$$$$$$$ooooo..........",
"..........ooooo$$$$$$$$$$$$$$$ooooo..........",
"..........ooooo$$$$$$$$$$$$$$$ooooo..........",
"........... .oo@@@@@ooooo@@@@@oo.............",
".... ..........ooooo.....ooooo...............",
"...............ooooo.....ooooo........... ...",
"...............ooooo.....ooooo...............",
".............................................",
".............................................",
"........... ................................."
};
