/* XPM */
static char *result[] = {
/* columns rows colors chars-per-pixel */
"45 45 9 1 ",
"  c #A4C263",
". c #C0D470",
"X c #EAE178",
"o c #5C4E92",
"O c #766DAA",
"+ c #E8B5AC",
"@ c #DDD5DE",
"# c #F3D8C5",
"$ c #F3F2C0",
/* pixels */
".................. ..........................",
".............................................",
".............................................",
"......................... ........... .......",
".............................................",
".. ......ooooooooo...........ooooooo.........",
".........ooooooooo...........ooooooo.........",
".......oo$$$$$$$ooooooooooooo$$$$$$$oo.......",
".......oo$$$$$$$ooooooooooooo$$$$$$$oo.......",
".......oo++++$$$$$@@@@@@@@@$$$$+++++oo.......",
".......oo++++$$$$$@@@@@@@@@$$$$+++++oo.......",
".......oo++++$$$$$@@@@@@@@@$$$$+++++oo.......",
".......oo++++$$$$$@@@@@@@@@$$$$+++++oo.......",
".........oo$$$$$$$@@@@@@@@@$$$$$$$oo..... ...",
".........oo$$$$$$$@@@@@@@@@$$$$$$$oo.........",
".........oo$$$$$$$@@@@@@@@@$$$$$$$oo.........",
"......ooooo$$$$$$$$$$$$$$$$$$$$$$$ooooo......",
".. ...ooooo$$$$$$$$$$$$$$$$$$$$$$$ooooo......",
".........oo$$$oo$$$$$$$$$$$$$oo$$$oo.........",
".........oo$$$oo$$$$$$$$$$$$$oo$$$oo.........",
"......ooooo$$$$$$$$$$$$$$$$$$$$$$$ooooo......",
". ....ooooo$$$$$$$$$$$$$$$$$$$$$$$ooooo......",
".........oo#####$$$$$$$$$$$$$#####oo..... ...",
".........oo#####$$$$$$$$$$$$$#####oo.........",
".........oo#####$$$$$$$$$$$$$#####oo.........",
"...........oooooOOOOOOOOOOOOOooooo...........",
"...........oooooOOOOOOOOOOOOOooooo...........",
"..............ooOOOOXX$$$OOOOoo.. ...........",
"....... ......ooOOOOXX$$$OOOOoo..............",
"............oo@@$$$$XXXXX$$$$@@oo.......... .",
"............oo@@$$$$XXXXX$$$$@@oo............",
" ...........oo@@$$$$$$$$$$$$$@@oo............",
"............oo@@$$$$$$$$$$$$$@@oo............",
"............oo@@$$$$$$$$$$$$$@@oo............",
"..............oo$$$$$$$$$$$$$oo..............",
"..............oo$$$$$$$$$$$$$oo..............",
". ....... ....oo@@@@ooooo@@@@oo..............",
"..............oo@@@@ooooo@@@@oo..............",
"................oooo.....oooo........... ....",
"................oooo.....oooo................",
"................oooo.....oooo................",
"...... ...............  .....................",
"................................. ...........",
".............................................",
"............. ............................. ."
};
