/* XPM */
static char *result[] = {
/* columns rows colors chars-per-pixel */
"45 45 9 1 ",
"  c #A4C263",
". c #C0D470",
"X c #EAE178",
"o c #5C4E92",
"O c #766DAA",
"+ c #E8B5AC",
"@ c #DDD5DE",
"# c #F3D8C5",
"$ c #F3F2C0",
/* pixels */
".................. ..........................",
".............................................",
".............................................",
"......................... ........... .......",
"............ ................................",
".. .................ooooooo..................",
"....................ooooooo..................",
"..................oo$$$$$$$oo................",
"..................oo$$$$$$$oo................",
".......... .....oooo$$+++++$$oo .............",
"................oooo$$+++++$$oo..............",
"..............oo$$$$$$+++++$$oo..............",
"..............oo$$$$$$+++++$$oo..............",
"..............oo$$$$$$$$$$$$$oo.......... ...",
"..............oo$$$$$$$$$$$$$oo..............",
"..............oo$$$$$$$$$$$$$oo..............",
"..............oo$$$$$$$$$$$$$oo..............",
".. ...........oo$$$$$$$$$$$$$oo.... .........",
"...........ooooo$$$$$$$$$$$$$ooooo...........",
"...........ooooo$$$$$$$$$$$$$ooooo...........",
"...........oo$$$$$oo$$$$$$$$$oo..............",
". ....... .oo$$$$$oo$$$$$$$$$oo..............",
"...........oo$$$$$$$$$$$$$$$$ooooo....... ...",
"...........oo$$$$$$$$$$$$$$$$ooooo...........",
"...........oo$$$$$$$$$$$$$$$$oo..............",
"...........oo$$$$$$$#####$$$$oo..............",
"...........oo$$$$$$$#####$$$$oo..............",
".............oooOOOOOOOOOOOoo.... ...........",
"....... .....oooOOOOOOOOOOOoo................",
".............XXXOOOOOOOOO$$@@oo............ .",
".............XXXOOOOOOOOO$$@@oo..............",
" ............XXXoo$$$$$$$$$@@oo..............",
".............XXXoo$$$$$$$$$@@oo..............",
".............XXXoo$$$$$$$$$@@oo..............",
"................oo$$$$$$$$$oo................",
"................oo$$$$$$$$$oo................",
". ....... ........oo@@@@@oo..................",
"..................oo@@@@@oo..................",
"....................ooooo............... ....",
"....................ooooo....................",
"....................ooooo....................",
"...... ...............  .....................",
"................................. ...........",
".............................................",
"............. ............................. ."
};
