/* XPM */
static char *result[] = {
/* columns rows colors chars-per-pixel */
"45 45 6 1 ",
"  c #A4C263",
". c #C0D470",
"X c #5C4E92",
"o c #766DAA",
"O c #DDD5DE",
"+ c #F3F2C0",
/* pixels */
".................. ..........................",
".............................................",
".............................................",
"......................... ........... .......",
".............................................",
".. ......XXXXXXXXX...........XXXXXXX.........",
".........XXXXXXXXX...........XXXXXXX.........",
".......XX+++++++XXXXXXXXXXXXX+++++++XX.......",
".......XX+++++++XXXXXXXXXXXXX+++++++XX.......",
".......XX+++++++++OOOOOOOOO+++++++++XX.......",
".......XX+++++++++OOOOOOOOO+++++++++XX.......",
".......XX+++++++++++++++++++++++++++XX.......",
".......XX+++++++++++++++++++++++++++XX.......",
".........XX+++++++++++++++++++++++XX..... ...",
".........XX+++++++++++++++++++++++XX.........",
".........XX+++++++++++++++++++++++XX.........",
"......XXXXX+++++++++++++++++++++++XXXXX......",
".. ...XXXXX+++++++++++++++++++++++XXXXX......",
".........XX+++++++++++++++++++++++XX.........",
".........XX+++++++++++++++++++++++XX.........",
"......XXXXX+++++++++++++++++++++++XXXXX......",
". ....XXXXX+++++++++++++++++++++++XXXXX......",
".........XX+++++++++++++++++++++++XX..... ...",
".........XX+++++++++++++++++++++++XX.........",
".........XX+++++++++++++++++++++++XX.........",
"...........XXXXXoooooooooooooXXXXX...........",
"...........XXXXXoooooooooooooXXXXX...........",
"..............XXoooooooooooooXX.. ...........",
"....... ......XXoooooooooooooXX..............",
"............XXOO++++XXXXX++++OOXX.......... .",
"............XXOO++++XXXXX++++OOXX............",
" ...........XXOO++XX+++++XX++OOXX............",
"............XXOO++XX+++++XX++OOXX............",
"............XXOO++XX+++++XX++OOXX............",
"..............XX+++++++++++++XX..............",
"..............XX+++++++++++++XX..............",
". ....... ....XXOOOOXXXXXOOOOXX..............",
"..............XXOOOOXXXXXOOOOXX..............",
"................XXXX.....XXXX........... ....",
"................XXXX.....XXXX................",
"................XXXX.....XXXX................",
"...... ...............  .....................",
"................................. ...........",
".............................................",
"............. ............................. ."
};
