/* XPM */
static char *result[] = {
/* columns rows colors chars-per-pixel */
"45 45 6 1 ",
"  c #A4C263",
". c #C0D470",
"X c #5C4E92",
"o c #766DAA",
"O c #DDD5DE",
"+ c #F3F2C0",
/* pixels */
".................. ..........................",
".............................................",
".............................................",
"......................... ........... .......",
".............................................",
".. ........XXXXXXX.........XXXXXXX...........",
"...........XXXXXXX.........XXXXXXX...........",
".........XX+++++++XX.....XX+++++++XX.........",
".........XX+++++++XX.....XX+++++++XX.........",
".........XX+++++++XXXXXXXXX+++++++XX.........",
".........XX+++++++XXXXXXXXX+++++++XX.........",
".........XX+++++++OOOOOOOOO+++++++XX.........",
".........XX+++++++OOOOOOOOO+++++++XX.........",
".........XX+++++++++++++++++++++++XX..... ...",
".........XX+++++++++++++++++++++++XX.........",
".........XX+++++++++++++++++++++++XX.........",
".........XX+++++++++++++++++++++++XX.........",
".. ......XX+++++++++++++++++++++++XX.........",
"......XXXXX+++++++++++++++++++++++XXXXX......",
"......XXXXX+++++++++++++++++++++++XXXXX......",
".........XX+++++++++++++++++++++++XX.........",
". .......XX+++++++++++++++++++++++XX.........",
"......XXXXX+++++++++++++++++++++++XXXXX.. ...",
"......XXXXX+++++++++++++++++++++++XXXXX......",
".........XX+++++++++++++++++++++++XX.........",
".........XX+++++++++++++++++++++++XX.........",
".........XX+++++++++++++++++++++++XX.........",
"...........XXXXXoooooooooooooXXXXX...........",
"....... ...XXXXXoooooooooooooXXXXX...........",
".........XXOO+++ooooXXXXXoooo++OOOXX....... .",
".........XXOO+++ooooXXXXXoooo++OOOXX.........",
" ........XXOO+++++XX+++++XX++++OOOXX.........",
".........XXOO+++++XX+++++XX++++OOOXX.........",
".........XXOO+++++XX+++++XX++++OOOXX.........",
"...........XXXXX+++++++++++++XXXXX...........",
"...........XXXXX+++++++++++++XXXXX...........",
". ....... ...XXXOOOOXXXXXOOOOXX..............",
".............XXXOOOOXXXXXOOOOXX..............",
"................XXXX.....XXXX........... ....",
"................XXXX.....XXXX................",
"................XXXX.....XXXX................",
"...... ...............  .....................",
"................................. ...........",
".............................................",
"............. ............................. ."
};
