/* XPM */
static char *result[] = {
/* columns rows colors chars-per-pixel */
"45 45 53 1 ",
"  c #775233",
". c #785233",
"X c #785333",
"o c #795333",
"O c #7A5434",
"+ c #815836",
"@ c #825936",
"# c #885C38",
"$ c #885D38",
"% c #91623B",
"& c #92633B",
"* c #93633C",
"= c #93643C",
"- c #90625D",
"; c #AC7344",
": c #B57946",
"> c #B57947",
", c #B77A47",
"< c #B77B47",
"1 c #B77C48",
"2 c #B67D48",
"3 c #B77D48",
"4 c #B77E49",
"5 c #B77F49",
"6 c #B87F49",
"7 c #AA7959",
"8 c #B5824A",
"9 c #B8804A",
"0 c #B8844C",
"q c #B8854C",
"w c #B18F4F",
"e c #B8884D",
"r c #B8884E",
"t c #B98C4F",
"y c #BA9453",
"u c #BA9C56",
"i c #BA9C57",
"p c #BBA058",
"a c #BBA059",
"s c #BBA45A",
"d c #BCAD5E",
"f c #A8B45D",
"g c #C49A6C",
"h c #A4C263",
"j c #BEC167",
"k c #BEC268",
"l c #BEC368",
"z c #BEC469",
"x c #BEC569",
"c c #BFCC6C",
"v c #BFCE6D",
"b c #BFCF6E",
"n c #C0D470",
/* pixels */
"nnnnnnnnnnnnnnnnnnnnnnnnnnnnnnnnnnnnnnnnnnnnn",
"nnnnnnnnnnnnnnnnnnnnnnnnnnnnnnnhnnnnnnnnnnnnn",
"nnnnnnnnnnnnhnnnnnnnnnnnnnnnnnnnnnnnnnnnnnnnn",
"nnnnnnnnnnnnnnnnnnnnnnnnnnnnnnnnnnnnnnnnhnnnn",
"nnnnnnnnnnnnnnnngggnnnnnngggnnnnnnnnnnnnnnnnn",
"nnnnhnnnnnnnnnn-777-nnnn-777-nnnnnnnnnnnnnnnn",
"nnnnnnnnnnnnnnn-777-nnnn-777-nnnnnnnnnnnnnnnn",
"nnnnnnnnnnnnnnn-777-nnnn-777-nnnnnnhnnnnnnnnn",
"nnnnnnnnnnnnnnnc---qq499r---ccnnnnnnnnnnnnnnn",
"nnnnnnnnnnnnbaa3,,-,,,,,,-,,33pbbnnnnnnnnnnnn",
"nnnnnnnnnnnnbaa3,,-,,,,,,-,,33pbbnnnnnnnnnnnn",
"nnnnnnnnnnffq,,,,,-,,,,,,-,,,,,88knnnnnnnnnnn",
"nnnnnnhnnz66,,,,gggggggggggg,,,,,5zznnnnnnnnn",
"nnnnnnnnnz66,,,,gggggggggggg,,,,,5zznnnnnnnnn",
"nnnnnnncc0,,,>>&77-777777-77%%:,,,00cnnnnhnnn",
"nnnnnnnii,,,>$$   -      -    #>>,,,innnnnnnn",
"nnnnnnnii,,,>$$ gggggggggggg  #>>,,,innnnnnnn",
"nnnnnnx<<,,,&   gggggggggggg   &&,,,<xxnnnnnn",
"nnnnnns,,,;;.   77-777777-77   ..;,,,ssnnnnnn",
"nnnnnns,,,;;.     -      -     ..;,,,ssnnnnnn",
"nnnnnnt,,,==    gggggggggggg     =,,,ttnnnnnn",
"nnnnnh6,,,++    gggggggggggg     +,,,66nnnnnn",
"nnnnnn6,,,++    77-777777-77     +,,,66nnnnnn",
"nnnnnn,,,,oo      -      -       o,,,,,nnnnnn",
"nnnnnn6,,,oo    gggggggggggg     O,,,55nnnnnn",
"nnnnnn6,,,oo    gggggggggggg     O,,,55nnnnnn",
"nhnnnnt,,,++    77-777777-77     @,,,ttnnnnnn",
"nnnnnns,,,==      -      -       *,,,ssnnhnnn",
"nnnnnns,,,==      -      -       *,,,ssnnnnnn",
"nnnnnnx<<,;;.     -      -     ..;,,<xxnnnnnn",
"nnnnnnnii,,,&                  &&,,,unnnnnnnn",
"nnnnnnnii,,,&                  &&,,,unnnnnnnn",
"nnnnnnncc0,,>$$               #>>,00cnnnnnnnn",
"nnnnnnnnnz44,>>&..         .%%:,,4llnnnnnnnnn",
"nnnnnnnnnz44,>>&..         .%%:,,4llnnnnnnnnn",
"nnnnnnnnnnkk0,,,;;*++XOO@**;,,,00jnnnnnnnnnnn",
"nnnnnnnnnnnnvpp1,,,,,,,,,,,,11pvvnnnnnnnnnnnn",
"nnnnnnnnnnnnvpp1,,,,,,,,,,,,11pvvnnnnnnnnnnnn",
"nnnnnnnnnhnnnnncddyqq255ewwdccnnnnnnhnnnnhnnn",
"nnnnnnnnnnnnnnnnnnnnnnnnnnnnnnnnnnnnnnnnnnnnn",
"nnnnnnnnnnnnnnnnnnnnnnhnnnnnnnnnnnnnnnnnnnnnn",
"nnhnnnnnnnnnnnnnnnnnnnnnnnnnnnnnnnnnnnnnnnnnn",
"nnnnnnnnnnnnnnnnnnnnnnnnnnnnnnnnnnnnnnnnnnnnn",
"nnnnnnnnnnnnnnnnhnnnnnnnnnnnnnnnnnnnnnnnnnnnn",
"nnnnnnnnnnnnnnnnnnnnnnnnnnnnnnnnnhnnnnnnnnnnn"
};
