/* XPM */
static char *result[] = {
/* columns rows colors chars-per-pixel */
"45 45 5 1 ",
"  c #78A158",
". c #A4C263",
"X c #C0D470",
"o c #B1E0BE",
"O c #9BD4C3",
/* pixels */
"X....XXX......XXXXX....XXX....XXX....XXXXXXXX",
"...........................................XX",
"   ..   ..      ......     ...    ..   .....X",
"                                          ..X",
"                                          ..X",
"OOOOOOOOOOOOOOOOOOOOOOOOOOOOOOOOOOOOOOOO   .X",
"OOOOOOOOOOOOOOOOOOOOOOOOOOOOOOOOOOOOOOOO   .X",
"OOOOOOOOOOOOOOOOOOOOOOOOOOOOOOOOOoooooOO   .X",
"OOoooooooOOOOOOOOOOOOOOOOOOOOOOOOOOOOOOO   .X",
"OOOOOOOOOOOOOOOOOOOOOOOOOOOOOOOOOOOOOOOO   .X",
"OOOOOOOOOOOOOOOOOOOOOooooooooooOOOOOOOOO  ..X",
"OOOOOOOOOOOOOOOOOOOOOOOOOOOOOOOOOOOOOOOO  ..X",
"OOOOOOOOOOOooooooOOOOOOOOOOOOOOOOOOOOOOO  ..X",
"OOOOOOOOOOOOOOOOOOOOOOOOOOOOOOOOOOOOOOOO  ..X",
"OOOOOOOOOOOOOOOOOOOOOOOOOOOOOOOOOOOOOOOO  ..X",
"OOOOOOOOOOOOOOOOOOOOOOOOOOOOOOOOOOOOOOOO   .X",
"OOOOOOOOOOOOOOOOOOOOOOOOOooooooOOOOOOOOO   .X",
"OOOOOOOOOOOOOOOOOOOOOOOOOOOOOOOOOOOOOOOO   .X",
"OOOooooooooOOOOOOOOOOOOOOOOOOOOOOOOOOOOO   .X",
"OOOOOOOOOOOOOOOOOOOOOOOOOOOOOOOOOOOOOOOO   .X",
"OOOOOOOOOOOOOOOOOOOOOOOOOOOOOOOOOOOOOOOO   .X",
"OOOOOOOOOOOOOOOOOOOoooOOOOOOOOOooooooooO   .X",
"OOOOOOOOOOOOOOOOOOOOOOOOOOOOOOOOOOOOOOOO  ..X",
"OOOOOOOOOOOOOOOOOOOOOOOOOOOOOOOOOOOOOOOO  ..X",
"OOOOOOOOOOOOOOOOOOOOOOOOOOOOOOOOOOOOOOOO  ..X",
"OOOOOOOOOOooooooooOOOOOOOOOOOOOOOOOOOOOO  ..X",
"OOOOOOOOOOOOOOOOOOOOOOOOOOOoooooooooOOOO  ..X",
"OOOOOOOOOOOOOOOOOOOOOOOOOOOOOOOOOOOOOOOO   .X",
"OOOOOOOOOOOOOOOOOOOOOOOOOOOOOOOOOOOOOOOO   .X",
"OOOOOOOOOOOOOOOOOOOOOOOOOOOOOOOOOOOOOOOO   .X",
"OOOOOOOOOOOOOOOOOOOOOOOOOOOOOOOOOOOOOOOO   .X",
"OOooooOOOOOOOOOOOOOOoooooOOOOOOOOOOOOOOO  ..X",
"OOOOOOOOOOOOOOOOOOOOOOOOOOOOOOOOOOOOOOOO  ..X",
"OOOOOOOOOOOOOOOOOOOOOOOOOOOOOOOOOOOOOOOO  ..X",
"OOOOOOOoooooooooooOOOOOOOOOOOOOOOOOOOOOO   .X",
"OOOOOOOOOOOOOOOOOOOOOOOOOOOOoooooooOOOOO   .X",
"OOOOOOOOOOOOOOOOOOOOOOOOOOOOOOOOOOOOOOOO   .X",
"OOOOOOOOOOOOOOOOOOOOOOOOOOOOOOOOOOOOOOOO   .X",
"OOOOOOOOOOOOOOOOOOOOOOOOOOOOOOOOOOOOOOOO   .X",
"OOOOOOOOOOOOOOOOOOOOOOOOOOOOOOOOOOOOOOOO   .X",
"                                          ..X",
"                                          ..X",
"   ..    ..    ...     ......      ..  .....X",
"............................................X",
"XXXXXXXX....XXX....XXX....XXXXX......XXXXXXXX"
};
