/* XPM */
static char *result[] = {
/* columns rows colors chars-per-pixel */
"45 45 5 1 ",
"  c #78A158",
". c #A4C263",
"X c #C0D470",
"o c #B1E0BE",
"O c #9BD4C3",
/* pixels */
"XXXXXX......XXXXXXX......XXXX........XXXXXXXX",
"XX..........................................X",
"X....       ....       ....     ...     ....X",
"X..                                       ..X",
"X..                                       ..X",
"X..  OOOOOOOOOOOOOOOOOOOOOOOOOOOOOOOOOOO  ..X",
"X.   OOOOOOOOOOOOOooooOOOOOOOOOOOOOOOOOO   .X",
"X.   OOOOOOOOOOOOOOOOOOOOOOOOOOOOOOOOOOO   .X",
"..   OOOOOOOOOOOOOOOOOOOOOoooOOOOOOOOOOO  ...",
"...  OOOOOOOOOOOOOOOOOOOOOOOOOOOOOOOOOOO  ...",
"...  OOOOooooooOOOOOOOOOOOOOOOOOOOOOOOOO   ..",
"..   OOOOOOOOOOOOOOOOOOOOOOOOOOOOOOOOOOO   ..",
"X.   OOOOOOOOOOOOOOOOOOOOOOOOOOooooooOOO   ..",
"X.   OOOOOOOOOOOOOOOOOOOOOOOOOOOOOOOOOOO   ..",
"X.   OOOOOOOOOOOOOOOOOOOOOOOOOOOOOOOOOOO   .X",
"...  OOOOOOOOOOOOOOOOOOOoooOOOOOOOOOOOOO   .X",
"...  OOOOOOOOOOooooOOOOOOOOOOOOOOOOOOOOO  ..X",
"...  OOOOOOOOOOOOOOOOOOOOOOOOOOOOOOOOOOO  ..X",
"..   OooooOOOOOOOOOOOOOOOOOOOOOOOOOOOooo  ..X",
"X.   OOOOOOOOOOOOOOOOOOOOOOOoooooOOOOOOO  ...",
"X.   OOOOOOOOOOOOOOOOOOOOOOOOOOOOOOOOOOO  ...",
"X.   OOOOOOOOOOOOOOOOOOOOOOOOOOOOOOOOOOO  ...",
"..   OOOOOOOOOOooooooOOOOOOOOOOOOOOOOOOO   ..",
"...  OOOOOOOOOOOOOOOOOOOOOOOOOOOOOOOOOOO   .X",
"...  OOOOOOOOOOOOOOOOOOOOOOOOOooooooOOOO   .X",
"...  OooooOOOOOOOOOOOOOOOOOOOOOOOOOOOOOO   .X",
"X..  OOOOOOOOOOOOOOOOOOOOOOOOOOOOOOOOOOO   ..",
"X..  OOOOOOOOOOOOOOOOooooOOOOOOOOOOOOOOO  ...",
"X..  OOOOOOOOOOOOOOOOOOOOOOOOOOOOOOOOOOO  ...",
"X.   OOOOOOOOOOOOOOOOOOOOOOOOOOOOOOOOOOO  ...",
"X.   OOOOOOOOOOOOOOOOOOOOOOOOOOOOOOOOOOO   .X",
"..   OOOOOOOOOOOOOOOOOOOOOOOOOOOOooooooo   .X",
"..   OOOOOOOOOOOOOOoooOOOOOOOOOOOOOOOOOO   .X",
"..   OOOOOOOOOOOOOOOOOOOOOOOOOOOOOOOOOOO   ..",
"..   OOOOooooooOOOOOOOOOOOOOOOOOOOOOOOOO  ...",
"...  OOOOOOOOOOOOOOOOOOOOOOOOOOOOOOOOOOO  ...",
"...  OOOOOOOOOOOOOOOOOOOooooooOOOOOOOOOO   ..",
"X.   OOOOOOOOOOOOOOOOOOOOOOOOOOOOOOOOOOO   .X",
"X.   OOOOOOOOOOOOOOOOOOOOOOOOOOOOOOOOOOO   .X",
"X.   OOOOOOOOOooooooOOOOOOOOOOOOOOOOOOOO   .X",
"...  OOOOOOOOOOOOOOOOOOOOOOOOOOOOOooooOO  ..X",
"...  OOOOOOOOOOOOOOOOOOOOOOOOOOOOOOOOOOO  ..X",
"..   OOOOOOOOOOOOOOOOOOOOOOOOOOOOOOOOOOO   .X",
"..   OoooooooOOOOOOOOOooooooOOOOOOOOOOOO   .X",
"X.   OOOOOOOOOOOOOOOOOOOOOOOOOOOOOOOOOOO   .X"
};
