/* XPM */
static char *result[] = {
/* columns rows colors chars-per-pixel */
"45 45 5 1 ",
"  c #78A158",
". c #A4C263",
"X c #C0D470",
"o c #B1E0BE",
"O c #9BD4C3",
/* pixels */
"XXXXXXXX......XXXXX....XXX....XXX....XXXXXXXX",
"X............................................",
"X....   ..      .....      ...    ..    ..   ",
"X..                                          ",
"X..                                          ",
"X.   OOOOOOOOOOOOOOOOOOOOOOOOOOOOOOOOOOOOOOOO",
"X.   OOOOOOOOOOOOOOOOOOOOOOOOOOOOOOOOOOOOOOOO",
"..   OOOOOOOOOOOOOOOOOOOOOOOOOOOOOOOOOOOOOOOO",
"..   OOOOOOOOOOOOOOOOOOOOOOOOOOoooooooOOOOOOO",
"..   OOOooooooooOOOOOOOOOOOOOOOOOOOOOOOOOOOOO",
"...  OOOOOOOOOOOOOOOOOOOOOOOOOOOOOOOOOOOOOOOO",
"...  OOOOOOOOOOOOOOOOoooooooOOOOOOOOOOOOOOOOO",
"...  OOOOOOOOOOOOOOOOOOOOOOOOOOOOOOOOOOOOOOOO",
"X.   OOOOOOOOOOOOOOOOOOOOOOOOOOOOOOOOOOOOOOOO",
"X.   OOOOOOOOOOOOOOOOOOOOOOOOOOOOOOOOOOOOOOOO",
"X.   OOOOOooooooooOOOOOOOOOOOOOOOOOOOOOOOOOOO",
"X.   OOOOOOOOOOOOOOOOOOOOOOOOOOOOOooooooooOOO",
"...  OOOOOOOOOOOOOOOOOOOOOOOOOOOOOOOOOOOOOOOO",
"...  OOOOOOOOOOOOOOOOOOOOOOOOOOOOOOOOOOOOOOOO",
"...  OOOOOOOOOOOOOOOOOOOOOOOOOOOOOOOOOOOOOOOO",
"...  OOOOOOOOOOOOOOOOOOooooooOOOOOOOOOOOOOOOO",
"..   OOOOOOOOOOOOOOOOOOOOOOOOOOOOOOOOOOOOOOOO",
"..   OOOOOOOOOOOOOOOOOOOOOOOOOOOOOOOOOOOOOOOO",
"X.   OOOOOOOoooooOOOOOOOOOOOOOOOOOOOOOOOOOOOO",
"X.   OOOOOOOOOOOOOOOOOOOOOOOOOOOOOOOooooooooO",
"X.   OOOOOOOOOOOOOOOOOOOOOOOOOOOOOOOOOOOOOOOO",
"X..  OOOOOOOOOOOOOOOOOOOOOOOOOOOOOOOOOOOOOOOO",
"...  OOOOOOOOOOOOOOOOOOOOOOOOOOOOOOOOOOOOOOOO",
"...  OOOOOOOOOOOOOOOOOOOOOOOOOOOOOOOOOOOOOOOO",
"...  OOOOOOOOOOOOOOOOOoooooOOOOOOOOOOOOOOOOOO",
"..   OOOOOOOOOOOOOOOOOOOOOOOOOOOOOOOOOOOOOOOO",
"..   OOOOOOOOOOOOOOOOOOOOOOOOOOOOOooooOOOOOOO",
"X.   OOoooooooOOOOOOOOOOOOOOOOOOOOOOOOOOOOOOO",
"X.   OOOOOOOOOOOOOOOOOOOOOOOOOOOOOOOOOOOOOOOO",
"X.   OOOOOOOOOOOOOOOOOOOOOOOOOOOOOOOOOOOOOOOO",
"X..  OOOOOOOOOOOOOOOOOOOOooooooooooOOOOOOOOOO",
"X..  OOOOOOOOOOOOOOOOOOOOOOOOOOOOOOOOOOOOOOOO",
"...  OOOOOOOOOOOOOOOOOOOOOOOOOOOOOOOOOOOOOOOO",
"...  OOOOOOOOOOOOOOOOOOOOOOOOOOOOOOOOOOOOOOOO",
"..   OOOOOOOOOOOOOOOOOOOOOOOOOOOOOOOOOOOOOOOO",
"..   OOOOOOOOoooooooooooOOOOOOOOOOOOoooooooOO",
"..   OOOOOOOOOOOOOOOOOOOOOOOOOOOOOOOOOOOOOOOO",
"..   OOOOOOOOOOOOOOOOOOOOOOOOOOOOOOOOOOOOOOOO",
"X.   OOOOOOOOOOOOOOOOOOOOOOOOOOOOOOOOOOOOOOOO",
"X..  OOOOOOOOOOOOOOOOOOOOOOOOOOOOOOOOOOOOOOOO"
};
