/* XPM */
static char *result[] = {
/* columns rows colors chars-per-pixel */
"45 45 5 1 ",
"  c #78A158",
". c #A4C263",
"X c #C0D470",
"o c #B1E0BE",
"O c #9BD4C3",
/* pixels */
"X.   OOOOOOOOOOOOOOOOOOOOOOOOOOOOOOOOOOOOOOOO",
"X.   OOOOOOOOOOOOOOOOOOOOOOOOOOOOOOOOOOOOOOOO",
"X.   OOOOOOOOOOOOOOOoooooOOOOOOOOOOOOOooooOOO",
"X..  OOOooooooooOOOOOOOOOOOOOOOOOOOOOOOOOOOOO",
"X..  OOOOOOOOOOOOOOOOOOOOOOOOOOOOOOOOOOOOOOOO",
"X.   OOOOOOOOOOOOOOOOOOOOOOOOOOOOOOOOOOOOOOOO",
"X.   OOOOOOOOOOOOOOOOOOOOOOooooooooooOOOOOOOO",
"X.   OOOOOOOOOOOOOOOOOOOOOOOOOOOOOOOOOOOOOOOO",
"..   OOOOOOOOOOOOOOOOOOOOOOOOOOOOOOOOOOOOOOOO",
"...  OOOOOOOOOOOOOOOOOOOOOOOOOOOOOOOOOOOOOOOO",
"...  OOOOOOOOOOOOOOOOOOOOOOOOOOOOOOOOOOOOOOOO",
"..   OOOOOOOOooooooooOOOOOOOOOOOOOOOOOOOOOOOO",
"X.   OOOOOOOOOOOOOOOOOOOOOOOOOOOOOOOOOOOOOOOO",
"X.   OOOOOOOOOOOOOOOOOOOOOOOOOOOooooooooooOOO",
"X.   OOOOOOOOOOOOOOOOOOOOOOOOOOOOOOOOOOOOOOOO",
"...  OOOOOOOOOOOOOOOOOOOOOOOOOOOOOOOOOOOOOOOO",
"...  OOOOOOOOOOOOOOOOOOOOOOOOOOOOOOOOOOOOOOOO",
"...  OOOOOOOOOOOOOOOOOOOooooOOOOOOOOOOOOOOOOO",
"..   OOOOOoooooooooOOOOOOOOOOOOOOOOOOOOOOOOOO",
"X.   OOOOOOOOOOOOOOOOOOOOOOOOOOOOOOOOOOOOOOOO",
"X.   OOOOOOOOOOOOOOOOOOOOOOOOOOOOOOOOOOOOOOOO",
"X.   OOOOOOOOOOOOOOOOOOOOOOOOOOOOOOOOOOOOOOOO",
"..   OOOOOOOOOOOOOOOOOOOOOOOOooooooooooOOOOOO",
"..   OOOOOOOOOOOoooooOOOOOOOOOOOOOOOOOOOOOOOO",
"...  OOOOOOOOOOOOOOOOOOOOOOOOOOOOOOOOOOOOOOOO",
"...  OOOOOOOOOOOOOOOOOOOOOOOOOOOOOOOOOOOOOOOO",
"X..  OOOOOOOOOOOOOOOOOOOOOOOOOOOOOOOOOOOOOOOO",
"X..  OOOOOOOOOOOOOOOOOOOOOOOOOOOOOOOOOOOOOOOO",
"X..  OOOooooooooooOOOOOOOOOOOOOOOOOOoooooooOO",
"X.   OOOOOOOOOOOOOOOOOOOOOOOOOOOOOOOOOOOOOOOO",
"X.   OOOOOOOOOOOOOOOOOOOOOOOOOOOOOOOOOOOOOOOO",
"..   OOOOOOOOOOOOOOOOOOOOooooooOOOOOOOOOOOOOO",
"..   OOOOOOOOOOOOOOOOOOOOOOOOOOOOOOOOOOOOOOOO",
"..   OOOOOOOOOOOOOOOOOOOOOOOOOOOOOOOOOOOOOOOO",
"..   OOOOOOOOooooOOOOOOOOOOOOOOOOOOOOOOOOOOOO",
"...  OOOOOOOOOOOOOOOOOOOOOOOOOOOOOOOOOOOOOOOO",
"...  OOOOOOOOOOOOOOOOOOOOOOOooooooooOOOOOOOOO",
"X.   OOOOOOOOOOOOOOOOOOOOOOOOOOOOOOOOOOOOOOOO",
"X.   OOOOOOOOOOOOOOOOOOOOOOOOOOOOOOOOOOOOOOOO",
"X.   OOOOOOOOOOOOOOOOOOOOOOOOOOOOOOOOOOOOOOOO",
"X..                                          ",
"X..                                          ",
"X.....       ......       .....      ...    .",
"X............................................",
"XXXX........XXXXX.......XXXXX......XXXX.....X"
};
