/* XPM */
static char *result[] = {
/* columns rows colors chars-per-pixel */
"45 45 5 1 ",
"  c #78A158",
". c #A4C263",
"X c #C0D470",
"o c #B1E0BE",
"O c #9BD4C3",
/* pixels */
"X.   OOOOOOOOOOOOOOOOOOOOOOOOOOOOOOOOOOO   .X",
"X.   OOOOOOOOOOOOooooooOOOOOOOOOoooooooO   ..",
"X.   OOOOOOOOOOOOOOOOOOOOOOOOOOOOOOOOOOO   ..",
"X..  OOOOOOOOOOOOOOOOOOOOOOOOOOOOOOOOOOO  ...",
"X..  OOooooOOOOOOOOOOOOOOOOOOOOOOOOOOOOO  ...",
"X.   OOOOOOOOOOOOOOOOOOOOooooooOOOOOOOOO   .X",
"X.   OOOOOOOOOOOOOOOOOOOOOOOOOOOOOOOOOOO   .X",
"X.   OOOOOOOOOOOOOOOOOOOOOOOOOOOOOOOOOOO   .X",
"..   OOOOOOOOOOooooooOOOOOOOOOOOOOOOOOOO  ...",
"...  OOOOOOOOOOOOOOOOOOOOOOOOOOOOOOOOOOO  ...",
"...  OOOOOOOOOOOOOOOOOOOOOOOOOooooooOOOO   ..",
"..   OOOOOOOOOOOOOOOOOOOOOOOOOOOOOOOOOOO   ..",
"X.   OOOOOOOOOOOOOOOOOOoooOOOOOOOOOOOOOO   ..",
"X.   oooooooOOOOOOOOOOOOOOOOOOOOOOOOOOOO   ..",
"X.   OOOOOOOOOOOOOOOOOOOOOOOOOOOOOOOOOOO   .X",
"...  OOOOOOOOOOOOOOOOOOOOOOOOOOOOOOOOOOO   .X",
"...  OOOOOOOOOOOOOOOOOOOOOOOOOOOOOOOOOOO  ..X",
"...  OOOOOOOOOOOOOOOooooOOOOOOOOOOOOOOOO  ..X",
"..   OOOOOOOOOOOOOOOOOOOOOOOOOOOOOOOOOOO  ..X",
"X.   OOOOOOOOOOOOOOOOOOOOOOOOOOOOOOooooO  ...",
"X.   OOOOooooooOOOOOOOOOOOOOOOOOOOOOOOOO  ...",
"X.   OOOOOOOOOOOOOOOOOOOOOOOOOOOOOOOOOOO  ...",
"..   OOOOOOOOOOOOOOOOOOOooooooOOOOOOOOOO   ..",
"...  OOOOOOOOOOOOOOOOOOOOOOOOOOOOOOOOOOO   .X",
"...  OOOOOOOOOOOOOOOOOOOOOOOOOOOOOOOOOOO   .X",
"...  OOOOOOOoooooOOOOOOOOOOOOOOOOOOOOOOO   .X",
"X..  oooOOOOOOOOOOOOOOOOOOOOOOOOOOOooooO   ..",
"X..  OOOOOOOOOOOOOOOOOOOOOOOOOOOOOOOOOOO  ...",
"X..  OOOOOOOOOOOOOOOOOOOOOooooOOOOOOOOOO  ...",
"X.   OOOOOOOOOOOOOoooOOOOOOOOOOOOOOOOOOO  ...",
"X.   OOOOOOOOOOOOOOOOOOOOOOOOOOOOOOOOOOO   .X",
"..   OOOOOOOOOOOOOOOOOOOOOOOOOOOOOOOOOOO   .X",
"..   OOOooooooOOOOOOOOOOOOOOOOOOOOOOOOOO   .X",
"..   OOOOOOOOOOOOOOOOOOOOOOOOOOOOOOOOOOO   ..",
"..   OOOOOOOOOOOOOOOOOOOOOOOOOooooooOOOO  ...",
"...  OOOOOOOOOOOOOOOOOOOOOOOOOOOOOOOOOOO  ...",
"...  OOOOOOOOOOOoooOOOOOOOOOOOOOOOOOOOOO   ..",
"X.   OOOOOOOOOOOOOOOOOOOOOOOOOOOOOOOOOOO   .X",
"X.   OOOOOOOOOOOOOOOOOOooooOOOOOOOOOOOOO   .X",
"X.   OOOOOOOOOOOOOOOOOOOOOOOOOOOOOOOOOOO  ...",
"..   OOOOOOOOOOOOOOOOOOOOOOOOOOOOooooooO  ...",
"..   OOOOOOOOOOOOOOOOOOOOOOOOOOOOOOOOOOO   ..",
"...  OoooooooooOOOOOOOOOOOOOOOOOOOOOOOOO   ..",
"...  OOOOOOOOOOOOOOOOOoooooOOOOOOOOOOOOO   .X",
"X..  OOOOOOOOOOOOOOOOOOOOOOoOOOOOOOOOOOO  ..X"
};
