/* XPM */
static char *result[] = {
/* columns rows colors chars-per-pixel */
"45 45 5 1 ",
"  c #78A158",
". c #A4C263",
"X c #C0D470",
"o c #B1E0BE",
"O c #9BD4C3",
/* pixels */
"OOOOOOOOOOOOOOOOOOOOOOOOOOOOOOOOOOOOOOOO  ..X",
"OOOOOOOOOOOOOOOOOOOOOOOOOOOOOOOOOOOOOOOO   .X",
"OOOOOOOOOOOOOOOOOOOOOOOOOOOOOOOOOooooOOO   ..",
"OOOoooooooOOOOOOOOOOOOOOOOOOOOOOOOOOOOOO   ..",
"OOOOOOOOOOOOOOOOOOOOOOOOOOOOOOOOOOOOOOOO  ...",
"OOOOOOOOOOOOOOOOOOOOOOOoooooooOOOOOOOOOO  ...",
"OOOOOOOOOOOOOOOOOOOOOOOOOOOOOOOOOOOOOOOO   ..",
"OOOOOOOOOOOOOOOOOOOOOOOOOOOOOOOOOOOOOOOO   .X",
"OOOOOOOOOOOOOOOOOOOOOOOOOOOOOOOOOOOOOOOO   .X",
"OOOOOOOOOOOOOOOOOOOOOOOOOOOOOOOOOOOOOOOO   .X",
"OOOOOOOOOooooooooOOOOOOOOOOOOOOOOOOOOOOO   ..",
"OOOOOOOOOOOOOOOOOOOOOOOOOOOOOOOOOOOOOOOO  ...",
"OOOOOOOOOOOOOOOOOOOOOOOOOOOOOOOooooooOOO  ...",
"OOOOOOOOOOOOOOOOOOOOOOOOOOOOOOOOOOOOOOOO  ...",
"OOOOOOOOOOOOOOOOOOOOOOOOOOOOOOOOOOOOOOOO  ...",
"OooooooOOOOOOOOOOOOOOoooooooOOOOOOOOOOOO   .X",
"OOOOOOOOOOOOOOOOOOOOOOOOOOOOOOOOOOOOOOOO   .X",
"OOOOOOOOOOOOOOOOOOOOOOOOOOOOOOOOOOOOOOOO   .X",
"OOOOOOOOOOOOOOOOOOOOOOOOOOOOOOOOOOOOOOOO   .X",
"OOOOOOOOOOOOOOOOOOOOOOOOOOOOOOOOOOOOOOOO   ..",
"OOOOOOOOOOOOOOOOOOOOOOOOOOOOOOOOOOOOOOOO   ..",
"OOOOOoooooooooOOOOOOOOOOOOOOOOOOOOOOOOOO  ...",
"OOOOOOOOOOOOOOOOOOOOOOOOOOOOOOOOOOOOOOOO  ...",
"OOOOOOOOOOOOOOOOOOOOOOOOOOoooooooooOOOOO  ...",
"OOOOOOOOOOOOOOOOOOOOOOOOOOOOOOOOOOOOOOOO   .X",
"OOOOOOOOOOOOOOOOOOOOOOOOOOOOOOOOOOOOOOOO   .X",
"OOOOOOOOOOOoooooooooOOOOOOOOOOOOOOOOOOOO   .X",
"OOOOOOOOOOOOOOOOOOOOOOOOOOOOOOOOOOOOOOOO   .X",
"OOOOOOOOOOOOOOOOOOOOOOOOOOOOOOOOOOOOOOOO   ..",
"OOOOOOOOOOOOOOOOOOOOOOOOOoooooooOOOOOOOO   ..",
"OOOOOOOOOOOOOOOOOOOOOOOOOOOOOOOOOOOOOOOO  ...",
"OOOOOOOOOOOOOOOOOOOOOOOOOOOOOOOOOOOOOOOO  ...",
"OOOoooooOOOOOOOOOOOOOOOOOOOOOOOOOOOOOOOO  ...",
"OOOOOOOOOOOOOOOOOOOOOOOOOOOOOOOOOOOOOOOO  ...",
"OOOOOOOOOOOOOOOOOOOOOOOOOOOOOOOOOOOOOOOO  ..X",
"OOOOOOOOOOOOOOOOOOOOOOOOOOOOOOoooooooOOO   .X",
"OOOOOOOOoooooooOOOOOOOOOOOOOOOOOOOOOOOOO   .X",
"OOOOOOOOOOOOOOOOOOOOOOOOOOOOOOOOOOOOOOOO   ..",
"OOOOOOOOOOOOOOOOOOOOOooooOOOOOOOOOOOOOOO   ..",
"OOOOOOOOOOOOOOOOOOOOOOOOOOOOOOOOOOOOOOOO   ..",
"                                          ...",
"                                          ...",
"   ..    ..    ...      .....      ..   ....X",
"............................................X",
"XXXXXXXX....XXX....XXX....XXXXX......XXXXXXXX"
};
