/* XPM */
static char *result[] = {
/* columns rows colors chars-per-pixel */
"45 45 5 1 ",
"  c #78A158",
". c #A4C263",
"X c #C0D470",
"o c #B1E0BE",
"O c #9BD4C3",
/* pixels */
"X......XX......XXXX......XXXX......XXX.....XX",
"............................................X",
"..      ....       ....       ....      ....X",
"                                          ..X",
"                                          ..X",
"OOOOOOOOOOOOOOOOOOOOOOOOOOOOOOOOOOOOOOOO   .X",
"OOOOOOOOOOOOOOOOOOooooOOOOOOOOOOOOOOOOOO   .X",
"OOOOOOOOOOOOOOOOOOOOOOOOOOOOOOOOOOOOOOOO   .X",
"OOOOOOOOOOOOOOOOOOOOOOOOOOoooOOOOOOOOOOO  ...",
"OOOOOOOOOOOOOOOOOOOOOOOOOOOOOOOOOOOOOOOO  ...",
"OOOOOOOOOooooooOOOOOOOOOOOOOOOOOOOOOOOOO   ..",
"OOOOOOOOOOOOOOOOOOOOOOOOOOOOOOOOOOOOOOOO   ..",
"OoooooOOOOOOOOOOOOOOOOOOOOOOOOOooooooOOO   ..",
"OOOOOOOOOOOOOOOOOOOOOOOOOOOOOOOOOOOOOOOO   ..",
"OOOOOOOOOOOOOOOOOOOOOOOOOOOOOOOOOOOOOOOO   .X",
"OOOOOOOOOOOOOOOOOOOOOOOOoooOOOOOOOOOOOOO   .X",
"OOOOOOOOOOOOOOOooooOOOOOOOOOOOOOOOOOOOOO  ..X",
"OOOOOOOOOOOOOOOOOOOOOOOOOOOOOOOOOOOOOOOO  ..X",
"OOOOOOooooOOOOOOOOOOOOOOOOOOOOOOOOOOOooo  ..X",
"OOOOOOOOOOOOOOOOOOOOOOOOOOOOoooooOOOOOOO  ...",
"OOOOOOOOOOOOOOOOOOOOOOOOOOOOOOOOOOOOOOOO  ...",
"ooooOOOOOOOOOOOOOOOOOOOOOOOOOOOOOOOOOOOO   ..",
"OOOOOOOOOOOOOOOooooooOOOOOOOOOOOOOOOOOOO   ..",
"OOOOOOOOOOOOOOOOOOOOOOOOOOOOOOOOOOOOOOOO   .X",
"OOOOOOOOOOOOOOOOOOOOOOOOOOOOOOooooooOOOO   .X",
"OOOOOOooooOOOOOOOOOOOOOOOOOOOOOOOOOOOOOO   .X",
"OOOOOOOOOOOOOOOOOOOOOOOOOOOOOOOOOOOOOOOO   ..",
"OOOOOOOOOOOOOOOOOOOOOooooOOOOOOOOOOOOOOO  ...",
"OOOOOOOOOOOOOOOOOOOOOOOOOOOOOOOOOOOOOOOO  ...",
"OOOOOOOOOOOOOOOOOOOOOOOOOOOOOOOOOOOOOOOO  ...",
"OOOOOOOOOOOOOOOOOOOOOOOOOOOOOOOOOOOOOOOO   .X",
"oooOOOOOOOOOOOOOOOOOOOOOOOOOOOOOOooooooo   .X",
"OOOOOOOOOOOOOOOOOOOoooOOOOOOOOOOOOOOOOOO   .X",
"OOOOOOOOOOOOOOOOOOOOOOOOOOOOOOOOOOOOOOOO   ..",
"OOOOOOOOOooooooOOOOOOOOOOOOOOOOOOOOOOOOO  ...",
"OOOOOOOOOOOOOOOOOOOOOOOOOOOOOOOOOOOOOOOO  ...",
"OOOOOOOOOOOOOOOOOOOOOOOOooooooOOOOOOOOOO   ..",
"OOOOOOOOOOOOOOOOOOOOOOOOOOOOOOOOOOOOOOOO   .X",
"OOooooOOOOOOOOOOOOOOOOOOOOOOOOOOOOOOOOOO   .X",
"OOOOOOOOOOOOOOooooooOOOOOOOOOOOOOOOOOOOO   .X",
"OOOOOOOOOOOOOOOOOOOOOOOOOOOOOOOOOOooooOO  ..X",
"OOOOOOOOOOOOOOOOOOOOOOOOOOOOOOOOOOOOOOOO  ..X",
"OOOOOOOOOOOOOOOOOOOOOOOOOOOOOOOOOOOOOOOO   .X",
"OOOOOOoooooooOOOOOOOOOooooooOOOOOOOOOOOO   .X",
"OOOOOOOOOOOOOOOOOOOOOOOOOOOOOOOOOOOOOOOO   .X"
};
