/* XPM */
static char *result[] = {
/* columns rows colors chars-per-pixel */
"45 45 5 1 ",
"  c #78A158",
". c #A4C263",
"X c #C0D470",
"o c #B1E0BE",
"O c #9BD4C3",
/* pixels */
"X..  OOOOOOOOOOOOOOOOOOOOOOOOOOOOOOOOooooooOO",
"X.   OOOOOOOOOOOOOOOOOOOOOOOOOOOOOOOOOOOOOOOO",
"X.   OooooOOOOOOOOOOOOOOOOOOOOOOOOOOOOOOOOOOO",
"X.   OOOOOOOOOOOOOOOOOOOOOOOoooooOOOOOOOOOOOO",
"X.   OOOOOOOOOOOOOOOOOOOOOOOOOOOOOOOOOOOOOOOO",
"X.   OOOOOOOOOOOOOOOOOOOOOOOOOOOOOOOOOOOOOOOO",
"...  OOOOOOOOOOOOOooooOOOOOOOOOOOOOOOOOOOOOOO",
"...  OOOOOOOOOOOOOOOOOOOOOOOOOOOOOOOOOOOooooo",
"..   OOOOOOOOOOOOOOOOOOOOOOOOOOOOOOOOOOOOOOOO",
"..   OOOOOOOOOOOOOOOOOOOOOOOOOOOOOOOOOOOOOOOO",
"..   OOOOooooooOOOOOOOOOOOOOOOOOOOOOOOOOOOOOO",
"..   OOOOOOOOOOOOOOOOOOOOOOOOOOOOOOOOOOOOOOOO",
"..   OOOOOOOOOOOOOOOOOOOOOOOOOOooooooOOOOOOOO",
"..   OOOOOOOOOOOOOOOOOOOOOOOOOOOOOOOOOOOOOOOO",
"X..  OOOOOOOOOOOOOOOOOOOOOOOOOOOOOOOOOOOOOOOO",
"X..  OOOOOOOOOOOOOOOOOOOoooOOOOOOOOOOOOOOOOOO",
"X..  OOOOOOOOOOooooOOOOOOOOOOOOOOOOOOOOOOOOOO",
"X..  OOOOOOOOOOOOOOOOOOOOOOOOOOOOOOOOOOOOOOOO",
"X.   OooooOOOOOOOOOOOOOOOOOOOOOOOOOOOoooooOOO",
"..   OOOOOOOOOOOOOOOOOOOOOOOoooooOOOOOOOOOOOO",
"..   OOOOOOOOOOOOOOOOOOOOOOOOOOOOOOOOOOOOOOOO",
"..   OOOOOOOOOOOOOOOOOOOOOOOOOOOOOOOOOOOOOOOO",
"..   OOOOOOOOOOooooooOOOOOOOOOOOOOOOOOOOOOOOO",
"..   OOOOOOOOOOOOOOOOOOOOOOOOOOOOOOOOOOOOOOOO",
"X..  OOOOOOOOOOOOOOOOOOOOOOOOOooooooOOOOOOOOO",
"X..  OooooOOOOOOOOOOOOOOOOOOOOOOOOOOOOOOOOOOO",
"X..  OOOOOOOOOOOOOOOOOOOOOOOOOOOOOOOOOOOOOOOO",
"X..  OOOOOOOOOOOOOOOOooooOOOOOOOOOOOOOOOOOOOO",
"..   OOOOOOOOOOOOOOOOOOOOOOOOOOOOOOOOOOOOOOOO",
"..   OOOOOOOOOOOOOOOOOOOOOOOOOOOOOOOOOOOOOOOO",
"..   OOOOOOOOOOOOOOOOOOOOOOOOOOOOOOOOOOOOOOOO",
"..   OOOOOOOOOOOOOOOOOOOOOOOOOOOOoooooooOOOOO",
"..   OOOOOOOOOOOOOOOOOOOOOOOOOOOOOOOOOOOOOOOO",
"..   OOOOOOOOOOOOOOOOOOOOOOOOOOOOOOOOOOOOOOOO",
"X..  OOOOooooooOOOOOOOOOOOOOOOOOOOOOOOOOOOOOO",
"X..  OOOOOOOOOOOOOOOOOOOOOOOOOOOOOOOOOOOOOOOO",
"X.   OOOOOOOOOOOOOOOOOOOooooooOOOOOOOOOOOOOOO",
"..   OOOOOOOOOOOOOOOOOOOOOOOOOOOOOOOOOOOOOOOO",
"..   OOOOOOOOOOOOOOOOOOOOOOOOOOOOOOOOOOOOOOOO",
"..   OOOOOOOOOOOoooOOOOOOOOOOOOOOOOOOOOOoooOO",
"..   OOOOOOOOOOOOOOOOOOOOOOOOOOOOOOOOOOOOOOOO",
"..   OOOOOOOOOOOOOOOOOOOOOOOOOOOOOOOOOOOOOOOO",
"...  OooooOOOOOOOOOOOOOOOOOOOOooooOOOOOOOOOOO",
"X..  OOOOOOOOOOOOOOOOooooOOOOOOOOOOOOOOOOOOOO",
"X..  OOOOOOOOOOOOOOOOOOOOOOOOOOOOOOOOOOOOOOOO"
};
