/* XPM */
static char *result[] = {
/* columns rows colors chars-per-pixel */
"45 45 5 1 ",
"  c #78A158",
". c #A4C263",
"X c #C0D470",
"o c #B1E0BE",
"O c #9BD4C3",
/* pixels */
"XXXXX........XXXXXX.....XXXXXX....XXX....XXXX",
"X...........................................X",
"X...     .....       ...       ....      ...X",
"X.                                         .X",
"..                                         .X",
".   OOOOOOOOOOOOOOOOOOOOOOOOOOOOOOOOOOOOO  .X",
".   OOOOOOOOOOOOOOooooOOOOOOOOOOOOOOOOOOO   X",
".   OOOOOOOOOOOOOOOOOOOOOOOOOOOOOOOOOOOOO   X",
".   OOOOOOOOOOOOOOOOOOOOOOOOOOOOOOOOOOOOO   .",
".   OOOOOOOOOOOOOOOOOOOOOOOOOOOOOOOOOOOOO   .",
".   OOOOOooooooOOOOOOOOOOOOOOOOOOOOOOOOOO   .",
"..  OOOOOOOOOOOOOOOOOOOOOOOOOOOOOOOOOOOOO   .",
"X.  OOOOOOOOOOOOOOOOOOOOOOOOOOOooooooOOOO   .",
"X.  OOOOOOOOOOOOOOOOOOOOOOOOOOOOOOOOOOOOO  ..",
"X.  OOOOOOOOOOOOOOOOOOOOOOOOOOOOOOOOOOOOO  .X",
"..  OOOOOOOOOOOOOOOOOOOOoooOOOOOOOOOOOOOO  .X",
".   OOOOOOOOOOOooooOOOOOOOOOOOOOOOOOOOOOO  .X",
".   OOOOOOOOOOOOOOOOOOOOOOOOOOOOOOOOOOOOO  .X",
".   OOooooOOOOOOOOOOOOOOOOOOOOOOOOOOOoooO   X",
"X   OOOOOOOOOOOOOOOOOOOOOOOOoooooOOOOOOOO   .",
"X   OOOOOOOOOOOOOOOOOOOOOOOOOOOOOOOOOOOOO   .",
"X   OOOOOOOOOOOOOOOOOOOOOOOOOOOOOOOOOOOOO   .",
"..  OOOOOOOOOOOooooooOOOOOOOOOOOOOOOOOOOO   .",
"..  OOOOOOOOOOOOOOOOOOOOOOOOOOOOOOOOOOOOO   X",
"..  OOOOOOOOOOOOOOOOOOOOOOOOOOooooooOOOOO   X",
".   OOooooOOOOOOOOOOOOOOOOOOOOOOOOOOOOOOO  .X",
"X   OOOOOOOOOOOOOOOOOOOOOOOOOOOOOOOOOOOOO  ..",
"X   OOOOOOOOOOOOOOOOOooooOOOOOOOOOOOOOOOO  ..",
"X   OOOOOOOOOOOOOOOOOOOOOOOOOOOOOOOOOOOOO  ..",
"X   OOOOOOOOOOOOOOOOOOOOOOOOOOOOOOOOOOOOO  ..",
"X   OOOOOOOOOOOOOOOOOOOOOOOOOOOOOOOOOOOOO   X",
"X.  OOOOOOOOOOOOOOOOOOOOOOOOOOOOOoooooooO   X",
"X.  OOOOOOOOOOOOOOOOOOOOOOOOOOOOOOOOOOOOO   X",
"..  OOOOOOOOOOOOOOOOOOOOOOOOOOOOOOOOOOOOO   .",
"..  OOOOOooooooOOOOOOOOOOOOOOOOOOOOOOOOOO   .",
".   OOOOOOOOOOOOOOOOOOOOOOOOOOOOOOOOOOOOO   .",
".   OOOOOOOOOOOOOOOOOOOOooooooOOOOOOOOOOO  ..",
".   OOOOOOOOOOOOOOOOOOOOOOOOOOOOOOOOOOOOO  ..",
".   OOOOOOOOOOOOOOOOOOOOOOOOOOOOOOOOOOOOO  ..",
".   OOOOOOOOOOOOOOOOOOOOOOOOOOOOOOOOOOOOO  ..",
"..                                         .X",
"X.                                         .X",
"X.....        .....      ......        .....X",
"X...........................................X",
"XXXX......XXXX........XXXXX.......XXX......XX"
};
