/* XPM */
static char *result[] = {
/* columns rows colors chars-per-pixel */
"45 45 5 1 ",
"  c #78A158",
". c #A4C263",
"X c #C0D470",
"o c #B1E0BE",
"O c #9BD4C3",
/* pixels */
"OOOOOOOOOOOOOOOOOOOOOOOOOOOOOOOOOOOOOooO  ..X",
"OOOOOOOOOOOOOOOOOOOOOOOOOOOOOOOOOOOOOOOO  ..X",
"OOOOOOooooOOOOOOOOOOOOOOOOOOOOOOOOOOOOOO   .X",
"OOOOOOOOOOOOOOOOOOOOOOOOOOOOoooooOOOOOOO   .X",
"OOOOOOOOOOOOOOOOOOOOOOOOOOOOOOOOOOOOOOOO   ..",
"OOOOOOOOOOOOOOOOOOOOOOOOOOOOOOOOOOOOOOOO   ..",
"OOOOOOOOOOOOOOOOOOooooOOOOOOOOOOOOOOOOOO   ..",
"OOOOOOOOOOOOOOOOOOOOOOOOOOOOOOOOOOOOOOOO   ..",
"OOOOOOOOOOOOOOOOOOOOOOOOOOOOOOOOOOOOOOOO  ...",
"OOOOOOOOOOOOOOOOOOOOOOOOOOOOOOOOOOOOOOOO  ...",
"OOOOOOOOOooooooOOOOOOOOOOOOOOOOOOOOOOOOO  ...",
"OOOOOOOOOOOOOOOOOOOOOOOOOOOOOOOOOOOOOOOO   ..",
"OOOOOOOOOOOOOOOOOOOOOOOOOOOOOOOooooooOOO   .X",
"OoooOOOOOOOOOOOOOOOOOOOOOOOOOOOOOOOOOOOO   .X",
"OOOOOOOOOOOOOOOOOOOOOOOOOOOOOOOOOOOOOOOO   .X",
"OOOOOOOOOOOOOOOOOOOOOOOOoooOOOOOOOOOOOOO   .X",
"OOOOOOOOOOOOOOOooooOOOOOOOOOOOOOOOOOOOOO   .X",
"OOOOOOOOOOOOOOOOOOOOOOOOOOOOOOOOOOOOOOOO   .X",
"OOOOOOooooOOOOOOOOOOOOOOOOOOOOOOOOOOOooO   ..",
"OOOOOOOOOOOOOOOOOOOOOOOOOOOOoooooOOOOOOO  ...",
"OOOOOOOOOOOOOOOOOOOOOOOOOOOOOOOOOOOOOOOO  ...",
"OOOOOOOOOOOOOOOOOOOOOOOOOOOOOOOOOOOOOOOO  ...",
"OOOOOOOOOOOOOOOooooooOOOOOOOOOOOOOOOOOOO   ..",
"OOOOOOOOOOOOOOOOOOOOOOOOOOOOOOOOOOOOOOOO   ..",
"OOOOOOOOOOOOOOOOOOOOOOOOOOOOOOooooooOOOO   .X",
"OOOOOOooooOOOOOOOOOOOOOOOOOOOOOOOOOOOOOO   .X",
"OOOOOOOOOOOOOOOOOOOOOOOOOOOOOOOOOOOOOOOO   .X",
"OOOOOOOOOOOOOOOOOOOOOooooOOOOOOOOOOOOOOO   ..",
"OOOOOOOOOOOOOOOOOOOOOOOOOOOOOOOOOOOOOOOO   ..",
"OOOOOOOOOOOOOOOOOOOOOOOOOOOOOOOOOOOOOOOO   ..",
"OOOOOOOOOOOOOOOOOOOOOOOOOOOOOOOOOOOOOOOO  ...",
"OOOOOOOOOOOOOOOOOOOOOOOOOOOOOOOOOooooooO  ...",
"OOOOOOOOOOOOOOOOOOOOOOOOOOOOOOOOOOOOOOOO  ...",
"OOOOOOOOOOOOOOOOOOOOOOOOOOOOOOOOOOOOOOOO  ..X",
"OOOOOOOOOooooooOOOOOOOOOOOOOOOOOOOOOOOOO   .X",
"OOOOOOOOOOOOOOOOOOOOOOOOOOOOOOOOOOOOOOOO   .X",
"OOOOOOOOOOOOOOOOOOOOOOOOooooooOOOOOOOOOO   .X",
"OOOOOOOOOOOOOOOOOOOOOOOOOOOOOOOOOOOOOOOO   ..",
"OoooOOOOOOOOOOOOOOOOOOOOOOOOOOOOOOOOOOOO   ..",
"OOOOOOOOOOOOOOOOoooOOOOOOOOOOOOOOOOOOOOO   ..",
"OOOOOOOOOOOOOOOOOOOOOOOOOOOOOOOOOOOOOOOO   ..",
"OOOOOOOOOOOOOOOOOOOOOOOOOOOOOOOOOOOOOOOO   ..",
"OOOOOOooooOOOOOOOOOOOOOOOOOOOOooooOOOOOO  ...",
"OOOOOOOOOOOOOOOOOOOOOooooOOOOOOOOOOOOOOO  ..X",
"OOOOOOOOOOOOOOOOOOOOOOOOOOOOOOOOOOOOOOOO  ..X"
};
