/* XPM */
static char *result[] = {
/* columns rows colors chars-per-pixel */
"45 45 5 1 ",
"  c #78A158",
". c #A4C263",
"X c #C0D470",
"o c #B1E0BE",
"O c #9BD4C3",
/* pixels */
"XXXXXXXX......XXXXX....XXX....XXX....XXXXXXXX",
"X............................................",
"X.....  ..      ......     ...    ..    ..   ",
"X..                                          ",
"X..                                          ",
"..   OOOOOOOOOOOOOOOOOOOOOOOOOOOOOOOOOOOOOOOO",
"..   OOOOOOOOOOOOOOOOOOOOOOOOOOOOOOOOOOOOOOOO",
"..   OOOOOOOOOOOOOOOOOOOOOOOOOOOOOOOOOOOOOOOO",
"..   OOOOOOOOooooooooOOOOOOOOOOOOOOOOOOOOoooo",
"...  OOOOOOOOOOOOOOOOOOOOOOOOOOOOOOOOOOOOOOOO",
"...  OOOOOOOOOOOOOOOOOOOOOOOOOOOOOOOOOOOOOOOO",
"...  OOOOOOOOOOOOOOOOOOOOOOOOOOOOOOOOOOOOOOOO",
"X.   OOOOooooOOOOOOOOOOOOoooooooooooOOOOOOOOO",
"X.   OOOOOOOOOOOOOOOOOOOOOOOOOOOOOOOOOOOOOOOO",
"X.   OOOOOOOOOOOOOOOOOOOOOOOOOOOOOOOOOOOOOOOO",
"X.   OOOOOOOOOOOOOOOOOOOOOOOOOOOOOOOOOOOOOOOO",
"..   OOOOOOOOOOOOOOOOOOOOOOOOOOOOOOOOOOOOOOOO",
"..   OOOOOOOOOOOOOOOOOOOOOOOOOOOOOOOOOOOOOOOO",
"..   OOOOOOooooooooOOOOOOOOOOOOOOOOOOOOOOOOOO",
"...  OOOOOOOOOOOOOOOOOOOOOOOOOOOOOOOOOOOOOOOO",
"...  OOOOOOOOOOOOOOOOOOOOOOOOOOoooooooooOOOOO",
"...  OOOOOOOOOOOOOOOOOOOOOOOOOOOOOOOOOOOOOOOO",
"X..  OOOOOOOOOOOOOOOOOOOOOOOOOOOOOOOOOOOOOOOO",
"X..  OOOOOOOOOOOOOOOOOOOOOOOOOOOOOOOOOOOOOOOO",
"X.   OooooooooOOOOOOOOOOOOOOOOOOOOOOOOOOOOOOO",
"X.   OOOOOOOOOOOOOOOOOOOooooOOOOOOOOOOOOOOOOO",
"..   OOOOOOOOOOOOOOOOOOOOOOOOOOOOOOOOOOoooooO",
"..   OOOOOOOOOOOOOOOOOOOOOOOOOOOOOOOOOOOOOOOO",
"..   OOOOOOOOOOOOOOOOOOOOOOOOOOOOOOOOOOOOOOOO",
"..   OOOOOOOOOOOOOOOOOOOOOOOOOOOOOOOOOOOOOOOO",
"...  OOOOOOOOOOOOOOOOOOOOOOOOOOOOooooOOOOOOOO",
"...  OOOOOOOOOOOOOOOOOOOOOOOOOOOOOOOOOOOOOOOO",
"...  OOOOOOOOOOOOOOOOOOOOOOOOOOOOOOOOOOOOOOOO",
"X..  OOOOOOOOOooooooooOOOOOOOOOOOOOOOOOOOOOOO",
"X.   OOOOOOOOOOOOOOOOOOOOOOOOOOOOOOOOOOOOOOOO",
"X.   OOOOOOOOOOOOOOOOOOOOOOOOOOOOOOOOOOOOOOOO",
"..   OOOOOOOOOOOOOOOOOOOOOOOoooooooooOOOOOOOO",
"..   OOooooOOOOOOOOOOOOOOOOOOOOOOOOOOOOOOOOOO",
"..   OOOOOOOOOOOOOOOOOOOOOOOOOOOOOOOOOOOOOOOO",
"..   OOOOOOOOOOOOOOOOOOOOOOOOOOOOOOOOOOOOOOOO",
"...                                          ",
"X..                                          ",
"X.....   ..    ...     ......      ..   ..   ",
"XX...........................................",
"XXXXXXXX....XXX....XXX....XXXXX......XXX....X"
};
